{
  "accessors": [
    {
      "bufferView": 2,
      "componentType": 5126,
      "count": 559,
      "max": [
        99.99996948242188,
        100.0,
        99.99993896484375
      ],
      "min": [
        -99.99990844726563,
        -100.0,
        -99.9998779296875
      ],
      "type": "VEC3"
    },
    {
      "bufferView": 2,
      "byteOffset": 6708,
      "componentType": 5126,
      "count": 559,
      "max": [
        1.0,
        1.0,
        1.0
      ],
      "min": [
        -1.0,
        -1.0,
        -1.0
      ],
      "type": "VEC3"
    },
    {
      "bufferView": 1,
      "componentType": 5126,
      "count": 559,
      "max": [
        1.0000001192092896,
        1.0
      ],
      "min": [
        0.0,
        0.0
      ],
      "type": "VEC2"
    },
    {
      "bufferView": 0,
      "componentType": 5125,
      "count": 2880,
      "type": "SCALAR"
    },
    {
      "bufferView": 2,
      "byteOffset": 13416,
      "componentType": 5126,
      "count": 328,
      "max": [
        70.7106704711914,
        100.0,
        70.7106704711914
      ],
      "min": [
        -398.452392578125,
        70.71067810058594,
        -70.71068572998047
      ],
      "type": "VEC3"
    },
    {
      "bufferView": 2,
      "byteOffset": 17352,
      "componentType": 5126,
      "count": 328,
      "max": [
        0.7101521492004395,
        1.0,
        0.7101521492004395
      ],
      "min": [
        -0.7101521492004395,
        0.7040482759475708,
        -0.7101521492004395
      ],
      "type": "VEC3"
    },
    {
      "bufferView": 1,
      "byteOffset": 4472,
      "componentType": 5126,
      "count": 328,
      "max": [
        1.0000001192092896,
        1.0
      ],
      "min": [
        0.0,
        0.75
      ],
      "type": "VEC2"
    },
    {
      "bufferView": 0,
      "byteOffset": 11520,
      "componentType": 5125,
      "count": 1344,
      "type": "SCALAR"
    },
    {
      "bufferView": 2,
      "byteOffset": 21288,
      "componentType": 5126,
      "count": 856,
      "max": [
        99.99996948242188,
        70.71067810058594,
        99.99993896484375
      ],
      "min": [
        -427.7416687011719,
        -100.0,
        -99.99988555908203
      ],
      "type": "VEC3"
    },
    {
      "bufferView": 2,
      "byteOffset": 31560,
      "componentType": 5126,
      "count": 856,
      "max": [
        1.0,
        0.7040627598762512,
        1.0
      ],
      "min": [
        -1.0,
        -1.0,
        -1.0
      ],
      "type": "VEC3"
    },
    {
      "bufferView": 1,
      "byteOffset": 7096,
      "componentType": 5126,
      "count": 856,
      "max": [
        1.0000001192092896,
        0.7500001192092896
      ],
      "min": [
        0.0,
        0.0
      ],
      "type": "VEC2"
    },
    {
      "bufferView": 0,
      "byteOffset": 16896,
      "componentType": 5125,
      "count": 4416,
      "type": "SCALAR"
    },
    {
      "bufferView": 2,
      "byteOffset": 41832,
      "componentType": 5126,
      "count": 312,
      "max": [
        33.153324127197266,
        57.40326690673828,
        10.963556289672852
      ],
      "min": [
        -34.8051643371582,
        15.414196014404297,
        -11.051370620727539
      ],
      "type": "VEC3"
    },
    {
      "bufferView": 2,
      "byteOffset": 45576,
      "componentType": 5126,
      "count": 312,
      "max": [
        0.9981657266616821,
        0.9988014101982117,
        0.9994983673095703
      ],
      "min": [
        -0.997500479221344,
        -0.9988724589347839,
        -0.9986677765846252
      ],
      "type": "VEC3"
    },
    {
      "bufferView": 1,
      "byteOffset": 13944,
      "componentType": 5126,
      "count": 312,
      "max": [
        1.0,
        1.0
      ],
      "min": [
        0.0416666679084301,
        0.0
      ],
      "type": "VEC2"
    },
    {
      "bufferView": 0,
      "byteOffset": 34560,
      "componentType": 5125,
      "count": 1716,
      "type": "SCALAR"
    },
    {
      "bufferView": 2,
      "byteOffset": 49320,
      "componentType": 5126,
      "count": 3959,
      "max": [
        209.22015380859375,
        74.62445831298828,
        82.99041748046875
      ],
      "min": [
        -209.22015380859375,
        -117.3294677734375,
        -82.99041748046875
      ],
      "type": "VEC3"
    },
    {
      "bufferView": 2,
      "byteOffset": 96828,
      "componentType": 5126,
      "count": 3959,
      "max": [
        0.9998675584793091,
        1.0,
        1.0
      ],
      "min": [
        -0.9998675584793091,
        -1.0,
        -1.0
      ],
      "type": "VEC3"
    },
    {
      "bufferView": 1,
      "byteOffset": 16440,
      "componentType": 5126,
      "count": 3959,
      "max": [
        0.7500001788139343,
        0.8750002384185791
      ],
      "min": [
        0.25,
        0.375
      ],
      "type": "VEC2"
    },
    {
      "bufferView": 0,
      "byteOffset": 41424,
      "componentType": 5125,
      "count": 18240,
      "type": "SCALAR"
    }
  ],
  "asset": {
    "extras": {
      "author": "keima01 (https://sketchfab.com/keima01)",
      "license": "CC-BY-4.0 (http://creativecommons.org/licenses/by/4.0/)",
      "source": "https://sketchfab.com/3d-models/jake-el-perro-73a610b294ee495db4fd410257f0a5fd",
      "title": "Jake El Perro"
    },
    "generator": "Sketchfab-13.31.0",
    "version": "2.0"
  },
  "bufferViews": [
    {
      "buffer": 0,
      "byteLength": 114384,
      "name": "floatBufferViews",
      "target": 34963
    },
    {
      "buffer": 0,
      "byteLength": 48112,
      "byteOffset": 114384,
      "byteStride": 8,
      "name": "floatBufferViews",
      "target": 34962
    },
    {
      "buffer": 0,
      "byteLength": 144336,
      "byteOffset": 162496,
      "byteStride": 12,
      "name": "floatBufferViews",
      "target": 34962
    }
  ],
  "buffers": [
    {
      "byteLength": 306832,
      "uri": "scene.bin"
    }
  ],
  "materials": [
    {
      "doubleSided": true,
      "name": "MaterialNariz",
      "pbrMetallicRoughness": {
        "baseColorFactor": [
          0.0,
          0.0,
          0.0,
          1.0
        ],
        "metallicFactor": 0.0
      }
    },
    {
      "doubleSided": true,
      "name": "OjoBlanco",
      "pbrMetallicRoughness": {
        "baseColorFactor": [
          0.8,
          0.8,
          0.8,
          1.0
        ],
        "metallicFactor": 0.0,
        "roughnessFactor": 0.8211145618000169
      }
    },
    {
      "doubleSided": true,
      "name": "OjoNegro",
      "pbrMetallicRoughness": {
        "baseColorFactor": [
          0.0,
          0.0,
          0.0,
          1.0
        ],
        "metallicFactor": 0.0
      }
    },
    {
      "doubleSided": true,
      "name": "CuerpoJake",
      "pbrMetallicRoughness": {
        "baseColorFactor": [
          1.0,
          0.518544,
          0.0350124,
          1.0
        ],
        "metallicFactor": 0.0,
        "roughnessFactor": 0.8445518482983646
      }
    }
  ],
  "meshes": [
    {
      "name": "Nariz_MaterialNariz_0",
      "primitives": [
        {
          "attributes": {
            "NORMAL": 1,
            "POSITION": 0,
            "TEXCOORD_0": 2
          },
          "indices": 3,
          "material": 0,
          "mode": 4
        }
      ]
    },
    {
      "name": "Ojos_OjoBlanco_0",
      "primitives": [
        {
          "attributes": {
            "NORMAL": 5,
            "POSITION": 4,
            "TEXCOORD_0": 6
          },
          "indices": 7,
          "material": 1,
          "mode": 4
        }
      ]
    },
    {
      "name": "Ojos_OjoNegro_0",
      "primitives": [
        {
          "attributes": {
            "NORMAL": 9,
            "POSITION": 8,
            "TEXCOORD_0": 10
          },
          "indices": 11,
          "material": 2,
          "mode": 4
        }
      ]
    },
    {
      "name": "Bigote_CuerpoJake_0",
      "primitives": [
        {
          "attributes": {
            "NORMAL": 13,
            "POSITION": 12,
            "TEXCOORD_0": 14
          },
          "indices": 15,
          "material": 3,
          "mode": 4
        }
      ]
    },
    {
      "name": "CuerpoJake_CuerpoJake_0",
      "primitives": [
        {
          "attributes": {
            "NORMAL": 17,
            "POSITION": 16,
            "TEXCOORD_0": 18
          },
          "indices": 19,
          "material": 3,
          "mode": 4
        }
      ]
    }
  ],
  "nodes": [
    {
      "children": [
        1
      ],
      "matrix": [
        1.0,
        0.0,
        0.0,
        0.0,
        0.0,
        2.220446049250313e-16,
        -1.0,
        0.0,
        0.0,
        1.0,
        2.220446049250313e-16,
        0.0,
        0.0,
        0.0,
        0.0,
        1.0
      ],
      "name": "Sketchfab_model"
    },
    {
      "children": [
        2
      ],
      "matrix": [
        0.009999999776482582,
        0.0,
        0.0,
        0.0,
        0.0,
        0.0,
        0.009999999776482582,
        0.0,
        0.0,
        -0.009999999776482582,
        0.0,
        0.0,
        0.0,
        0.0,
        0.0,
        1.0
      ],
      "name": "a4ea7bdc7a604108be0d1af283ef3a5b.fbx"
    },
    {
      "children": [
        3,
        5,
        8,
        10
      ],
      "name": "RootNode"
    },
    {
      "children": [
        4
      ],
      "matrix": [
        0.12399378418922424,
        0.0,
        0.0,
        0.0,
        0.0,
        0.09787730127573013,
        0.0,
        0.0,
        0.0,
        0.0,
        0.09787730127573013,
        0.0,
        0.0,
        31.59572410583496,
        85.72979736328125,
        1.0
      ],
      "name": "Nariz"
    },
    {
      "mesh": 0,
      "name": "Nariz_MaterialNariz_0"
    },
    {
      "children": [
        6,
        7
      ],
      "matrix": [
        0.21469494700431824,
        0.0,
        0.0,
        0.0,
        0.0,
        -3.497824662793677e-08,
        0.2146949470043154,
        0.0,
        0.0,
        -0.2146949470043154,
        -3.497824662793677e-08,
        0.0,
        35.18224334716797,
        53.439849853515625,
        59.176761627197266,
        1.0
      ],
      "name": "Ojos"
    },
    {
      "mesh": 1,
      "name": "Ojos_OjoBlanco_0"
    },
    {
      "mesh": 2,
      "name": "Ojos_OjoNegro_0"
    },
    {
      "children": [
        9
      ],
      "matrix": [
        1.0,
        0.0,
        0.0,
        0.0,
        0.0,
        1.0,
        0.0,
        0.0,
        0.0,
        0.0,
        1.0,
        0.0,
        0.0,
        0.0,
        83.22635650634766,
        1.0
      ],
      "name": "Bigote"
    },
    {
      "mesh": 3,
      "name": "Bigote_CuerpoJake_0"
    },
    {
      "children": [
        11
      ],
      "matrix": [
        1.0,
        0.0,
        0.0,
        0.0,
        0.0,
        1.600000023841858,
        0.0,
        0.0,
        0.0,
        0.0,
        1.0,
        0.0,
        0.0,
        0.0,
        0.0,
        1.0
      ],
      "name": "CuerpoJake"
    },
    {
      "mesh": 4,
      "name": "CuerpoJake_CuerpoJake_0"
    }
  ],
  "scene": 0,
  "scenes": [
    {
      "name": "Sketchfab_Scene",
      "nodes": [
        0
      ]
    }
  ]
}
